<svg xmlns="http://www.w3.org/2000/svg" viewBox="0 0 288.51 126.66"><defs><style>.cls-1{fill:#f1753f;}.cls-2{fill:#555c62;}.cls-3{fill:#0060b0;}</style></defs><title>logo_gt_constructora</title><g id="Diseño"><polygon class="cls-1" points="73.17 42.65 48.55 42.65 60.86 21.32 73.17 0 85.49 21.32 97.8 42.65 73.17 42.65"/><polygon class="cls-2" points="34.46 65.48 59.88 65.48 59.88 126.66 0 126.66 34.46 65.48"/><polygon class="cls-2" points="84.01 65.48 111.58 65.48 128.38 94.78 109.42 126.66 62.04 126.66 84.44 91.33 84.01 65.48"/><polygon class="cls-3" points="288.51 8.93 219.28 8.93 206.61 27.49 234.11 27.49 234.11 85.74 254.15 85.74 254.15 27.49 275.85 27.49 288.51 8.93"/><path class="cls-3" d="M197.75,34.13,208.52,19.7S194.88,9.09,176.25,9.09a38.39,38.39,0,0,0-38.32,38.32c0,24.48,20.74,38.32,38.32,38.32C199,85.73,210.93,75,210.93,75V42.15H176.55v13.4h16.31V66s-6.24,4-12.86,4c-13.57,0-22-11.26-22-22,0-13.77,11.88-22,22-22C190.42,26,197.75,34.13,197.75,34.13Z"/><path class="cls-2" d="M160.85,93.77,160,95.5a3,3,0,0,0-2.24-.7A2.91,2.91,0,0,0,155.34,96a5,5,0,0,0-.94,3.11,4.74,4.74,0,0,0,.87,3,2.83,2.83,0,0,0,2.32,1.1,3.12,3.12,0,0,0,2.6-1.18l1,1.68a4.88,4.88,0,0,1-3.73,1.35,4.72,4.72,0,0,1-3.83-1.62,6.63,6.63,0,0,1-1.36-4.41,6.43,6.43,0,0,1,1.51-4.36A4.88,4.88,0,0,1,157.62,93,5.64,5.64,0,0,1,160.85,93.77Z"/><path class="cls-2" d="M162.29,98.92a6.63,6.63,0,0,1,1.37-4.25,4.47,4.47,0,0,1,3.68-1.73,4.79,4.79,0,0,1,3.87,1.57,6.62,6.62,0,0,1,1.34,4.41,6.83,6.83,0,0,1-1.4,4.51,4.9,4.9,0,0,1-4,1.66,4.29,4.29,0,0,1-3.63-1.65A7.29,7.29,0,0,1,162.29,98.92Zm2.16,0a6,6,0,0,0,.7,3.19,2.22,2.22,0,0,0,2,1.13,2.8,2.8,0,0,0,2.38-1.1,5.33,5.33,0,0,0,.82-3.22q0-4.12-3-4.13a2.4,2.4,0,0,0-2.14,1.12A5.32,5.32,0,0,0,164.45,98.92Z"/><path class="cls-2" d="M182.1,105.05l-5.7-7.43v7.28h-2V93.15h1l5.55,7.08V93.15h2v11.9Z"/><path class="cls-2" d="M184.8,104.24l.76-1.86a4.31,4.31,0,0,0,2.43.86c1.23,0,1.84-.43,1.84-1.28a1.83,1.83,0,0,0-.43-1.15,5.65,5.65,0,0,0-1.79-1.22,8.33,8.33,0,0,1-1.82-1.12,3,3,0,0,1-.72-1,3.4,3.4,0,0,1-.25-1.34,2.91,2.91,0,0,1,1-2.26,3.71,3.71,0,0,1,2.56-.89,4.76,4.76,0,0,1,3,.76l-.63,1.79a4,4,0,0,0-2.32-.78,1.54,1.54,0,0,0-1.12.38,1.32,1.32,0,0,0-.4,1c0,.67.75,1.37,2.24,2.1a7.57,7.57,0,0,1,1.7,1.06,3.43,3.43,0,0,1,.8,1.13,3.7,3.7,0,0,1,.27,1.44,2.91,2.91,0,0,1-1.13,2.35,4.6,4.6,0,0,1-3,.92A5.33,5.33,0,0,1,184.8,104.24Z"/><path class="cls-2" d="M198.53,95v9.89h-2.08V95h-3.74V93.15h9.73V95Z"/><path class="cls-2" d="M210.42,104.89,207.29,100c-.32,0-.76,0-1.32-.05v4.9H203.8V93.15l1.36-.06c.78,0,1.41-.06,1.9-.06q4.47,0,4.47,3.46a3.18,3.18,0,0,1-.62,1.9,3.32,3.32,0,0,1-1.55,1.21l3.47,5.29ZM206,95v3.26c.38,0,.67,0,.88,0a3.74,3.74,0,0,0,1.91-.37,1.54,1.54,0,0,0,.61-1.43,1.24,1.24,0,0,0-.65-1.21,4.6,4.6,0,0,0-2.05-.35A5.76,5.76,0,0,0,206,95Z"/><path class="cls-2" d="M213.83,93.15h2.09v8a2,2,0,0,0,2.16,2.13,2.48,2.48,0,0,0,1.76-.58,2.06,2.06,0,0,0,.63-1.59V93.15h2.09v8.08a3.53,3.53,0,0,1-1.22,2.84,4.87,4.87,0,0,1-3.24,1,4.54,4.54,0,0,1-3.16-1,3.66,3.66,0,0,1-1.11-2.87Z"/><path class="cls-2" d="M233,93.77l-.85,1.73a3.08,3.08,0,0,0-2.25-.7A2.91,2.91,0,0,0,227.5,96a5,5,0,0,0-.93,3.11,4.74,4.74,0,0,0,.87,3,2.81,2.81,0,0,0,2.32,1.1,3.14,3.14,0,0,0,2.6-1.18l1,1.68a4.91,4.91,0,0,1-3.74,1.35,4.74,4.74,0,0,1-3.83-1.62,6.68,6.68,0,0,1-1.36-4.41,6.43,6.43,0,0,1,1.51-4.36A4.88,4.88,0,0,1,229.78,93,5.62,5.62,0,0,1,233,93.77Z"/><path class="cls-2" d="M239.79,95v9.89H237.7V95H234V93.15h9.72V95Z"/><path class="cls-2" d="M243.52,98.92a6.68,6.68,0,0,1,1.37-4.25,4.48,4.48,0,0,1,3.68-1.73,4.79,4.79,0,0,1,3.87,1.57,6.57,6.57,0,0,1,1.34,4.41,6.78,6.78,0,0,1-1.4,4.51,4.88,4.88,0,0,1-4,1.66,4.29,4.29,0,0,1-3.63-1.65A7.29,7.29,0,0,1,243.52,98.92Zm2.16,0a6.14,6.14,0,0,0,.7,3.19,2.23,2.23,0,0,0,2,1.13,2.82,2.82,0,0,0,2.39-1.1,5.4,5.4,0,0,0,.82-3.22q0-4.12-3.05-4.13a2.41,2.41,0,0,0-2.14,1.12A5.32,5.32,0,0,0,245.68,98.92Z"/><path class="cls-2" d="M262.25,104.89,259.12,100c-.32,0-.76,0-1.33-.05v4.9h-2.16V93.15l1.35-.06c.79,0,1.42-.06,1.9-.06q4.49,0,4.48,3.46a3.18,3.18,0,0,1-.62,1.9,3.3,3.3,0,0,1-1.56,1.21l3.48,5.29ZM257.79,95v3.26c.39,0,.68,0,.88,0a3.78,3.78,0,0,0,1.92-.37,1.54,1.54,0,0,0,.6-1.43,1.23,1.23,0,0,0-.65-1.21,4.53,4.53,0,0,0-2-.35A5.92,5.92,0,0,0,257.79,95Z"/><path class="cls-2" d="M272.52,104.89l-.86-2.38h-4l-.82,2.38H264.5L269.18,93h.91l4.73,11.9Zm-2.88-8.31-1.42,4.34h2.83Z"/><path class="cls-2" d="M155.55,112.51l-1,1.89a5,5,0,0,0-1.28-.73,3.89,3.89,0,0,0-1.5-.37,3.85,3.85,0,0,0-3.09,1.33,5.3,5.3,0,0,0-1.13,3.55,5,5,0,0,0,1.11,3.39,3.83,3.83,0,0,0,3,1.27,3.08,3.08,0,0,0,2.07-.69v-2.61h-1.83v-2h4.19v5.94a6,6,0,0,1-2.17,1.07,9.28,9.28,0,0,1-2.64.39,5.77,5.77,0,0,1-4.52-1.87,7.12,7.12,0,0,1-1.67-4.94,6.92,6.92,0,0,1,1.82-5,6.41,6.41,0,0,1,4.89-1.92A5.53,5.53,0,0,1,155.55,112.51Z"/><path class="cls-2" d="M163.43,113.53v3.1h4.38v2h-4.38v4h6v2.09h-8.36V111.43h8.46v2.1Z"/><path class="cls-2" d="M173.87,118a7.5,7.5,0,0,1,1.55-4.79,5,5,0,0,1,4.15-2A5.45,5.45,0,0,1,184,113a7.46,7.46,0,0,1,1.51,5,7.67,7.67,0,0,1-1.58,5.09,5.52,5.52,0,0,1-4.49,1.89,4.85,4.85,0,0,1-4.1-1.87A8.21,8.21,0,0,1,173.87,118Zm2.44,0a6.93,6.93,0,0,0,.79,3.61,2.54,2.54,0,0,0,2.29,1.28,3.17,3.17,0,0,0,2.7-1.25A6.06,6.06,0,0,0,183,118c0-3.1-1.15-4.66-3.45-4.66a2.72,2.72,0,0,0-2.41,1.26A6,6,0,0,0,176.31,118Z"/><path class="cls-2" d="M195.82,113.53V124.7h-2.36V113.53h-4.22v-2.1h11v2.1Z"/><path class="cls-2" d="M207,113.53v3.1h4.38v2H207v4h6v2.09h-8.37V111.43h8.47v2.1Zm4.22-5.84-2,2.66h-1.72l1.53-2.66Z"/><path class="cls-2" d="M227.16,112.14l-1,2a3.47,3.47,0,0,0-2.54-.79,3.25,3.25,0,0,0-2.71,1.39,5.62,5.62,0,0,0-1.06,3.52,5.37,5.37,0,0,0,1,3.38,3.18,3.18,0,0,0,2.62,1.25,3.56,3.56,0,0,0,2.94-1.34l1.09,1.9a5.51,5.51,0,0,1-4.22,1.53A5.35,5.35,0,0,1,219,123.1a7.54,7.54,0,0,1-1.54-5,7.26,7.26,0,0,1,1.71-4.92,5.51,5.51,0,0,1,4.37-2A6.39,6.39,0,0,1,227.16,112.14Z"/><path class="cls-2" d="M241,124.88l-6.44-8.39v8.22h-2.26V111.43h1.13l6.27,8v-8H242v13.45Z"/><path class="cls-2" d="M247.59,124.7V111.43h2.35V124.7Z"/><path class="cls-2" d="M264.67,112.14l-1,2a3.44,3.44,0,0,0-2.53-.79,3.27,3.27,0,0,0-2.72,1.39,5.69,5.69,0,0,0-1.06,3.52,5.31,5.31,0,0,0,1,3.38,3.16,3.16,0,0,0,2.62,1.25,3.54,3.54,0,0,0,2.93-1.34l1.1,1.9a5.53,5.53,0,0,1-4.22,1.53,5.32,5.32,0,0,1-4.32-1.83,7.48,7.48,0,0,1-1.54-5,7.3,7.3,0,0,1,1.7-4.92,5.52,5.52,0,0,1,4.37-2A6.37,6.37,0,0,1,264.67,112.14Z"/><path class="cls-2" d="M277.55,124.7l-1-2.69H272l-.92,2.69h-2.62l5.29-13.45h1l5.34,13.45Zm-3.25-9.39-1.6,4.9h3.19Z"/></g></svg>